<svg width="58" height="25" viewBox="0 0 58 25" fill="none" xmlns="http://www.w3.org/2000/svg">
<path d="M7.88281 0.875H24.3672C25.0964 0.901042 25.6953 1.17448 26.1641 1.69531C26.6589 2.21615 26.9062 2.84115 26.9062 3.57031C26.776 5.13281 25.9297 5.97917 24.3672 6.10938H9.21094C8.22135 6.16146 7.40104 6.53906 6.75 7.24219C6.09896 7.94531 5.61719 8.7526 5.30469 9.66406C5.01823 10.5495 4.875 11.4609 4.875 12.3984C4.875 13.3359 5.01823 14.2604 5.30469 15.1719C5.61719 16.0573 6.09896 16.8516 6.75 17.5547C7.40104 18.2578 8.22135 18.6354 9.21094 18.6875H21.0859C21.5547 18.6615 21.8021 18.401 21.8281 17.9062V15.6406C21.8021 15.1198 21.5547 14.8594 21.0859 14.8594H11.0859C10.3568 14.8594 9.73177 14.612 9.21094 14.1172C8.71615 13.5964 8.46875 12.9714 8.46875 12.2422C8.46875 11.513 8.71615 10.888 9.21094 10.3672C9.73177 9.8724 10.3568 9.625 11.0859 9.625H24.4453C25.1745 9.625 25.7995 9.8724 26.3203 10.3672C26.7891 10.862 27.0365 11.4609 27.0625 12.1641V12.2422V21.3828C27.0365 22.0859 26.7891 22.6719 26.3203 23.1406C25.8255 23.6354 25.2266 23.8958 24.5234 23.9219H7.88281C6.0599 23.8177 4.54948 23.1276 3.35156 21.8516C2.17969 20.5495 1.33333 19.0781 0.8125 17.4375C0.317708 15.7969 0.0703125 14.1172 0.0703125 12.3984C0.0703125 10.6797 0.330729 9 0.851562 7.35938C1.3724 5.71875 2.21875 4.26042 3.39062 2.98438C4.5625 1.68229 6.0599 0.979167 7.88281 0.875ZM32.7266 11.1094C33.2214 9.85938 34.0547 8.73958 35.2266 7.75C36.4245 6.73438 37.9349 6.21354 39.7578 6.1875H54.4453C55.1745 6.1875 55.7865 6.44792 56.2812 6.96875C56.8021 7.46354 57.0625 8.07552 57.0625 8.80469C57.0625 9.53385 56.8021 10.1589 56.2812 10.6797C55.7865 11.1745 55.1745 11.4219 54.4453 11.4219H39.6016C39.1068 11.4219 38.6771 11.6302 38.3125 12.0469C37.9479 12.4375 37.6615 12.9062 37.4531 13.4531C37.2708 14 37.1797 14.5208 37.1797 15.0156V21.8516C37.0234 23.4141 36.1641 24.2604 34.6016 24.3906C33.8724 24.3906 33.2344 24.1562 32.6875 23.6875C32.1667 23.1927 31.9062 22.5807 31.9062 21.8516V15.0547H31.9453C31.9453 13.7005 32.2057 12.3854 32.7266 11.1094Z" fill="#EA592A"/>
</svg>
