<svg width="40" height="40" viewBox="0 0 40 40" fill="none" xmlns="http://www.w3.org/2000/svg">
<path d="M1.87467 16H38.1253V13.3333H1.87467V16ZM37.3333 15.208V16.3787H40V15.208H37.3333ZM33.0293 37.3333H6.97067V40H33.0293V37.3333ZM2.66667 16.3787V15.208H0V16.3787H2.66667ZM7.72267 37.7973C4.39761 31.147 2.66658 23.8139 2.66667 16.3787H0C0 24.2293 1.82667 31.9707 5.33867 38.992L7.72267 37.7973ZM6.97067 37.3333C7.29067 37.3333 7.58133 37.5147 7.72267 37.7973L5.33867 38.992C5.49048 39.2948 5.72351 39.5495 6.01171 39.7275C6.29991 39.9055 6.63193 39.9998 6.97067 40V37.3333ZM32.2773 37.7973C32.3472 37.6578 32.4546 37.5404 32.5874 37.4585C32.7202 37.3765 32.8733 37.3332 33.0293 37.3333V40C33.7227 40 34.352 39.6107 34.6613 38.992L32.2773 37.7973ZM37.3333 16.3787C37.3333 23.8133 35.6 31.1467 32.2773 37.7973L34.6613 38.992C38.1722 31.9709 40.0001 24.2287 40 16.3787H37.3333ZM38.1253 16C37.9153 16 37.7138 15.9166 37.5653 15.768C37.4168 15.6195 37.3333 15.4181 37.3333 15.208H40C40 14.7108 39.8025 14.234 39.4509 13.8824C39.0994 13.5309 38.6225 13.3333 38.1253 13.3333V16ZM1.87467 13.3333C1.37747 13.3333 0.900645 13.5309 0.549077 13.8824C0.197509 14.234 0 14.7108 0 15.208H2.66667C2.66667 15.4181 2.58322 15.6195 2.4347 15.768C2.28617 15.9166 2.08472 16 1.87467 16V13.3333ZM10.4773 15.352L18.4773 2.01868L16.1867 0.64801L8.18667 13.9813L10.4773 15.352ZM21.5227 2.01868L29.5227 15.352L31.8107 13.9813L23.8107 0.64801L21.5227 2.01868Z" fill="white"/>
</svg>
