<svg width="16" height="16" viewBox="0 0 16 16" fill="none" xmlns="http://www.w3.org/2000/svg">
<path fill-rule="evenodd" clip-rule="evenodd" d="M6.22222 8L0.888889 2.66667C0.397969 2.17575 0.397969 1.37981 0.888889 0.888889C1.37981 0.397969 2.17575 0.397969 2.66667 0.888889L8 6.22222L13.3333 0.888889C13.8243 0.397969 14.6202 0.397969 15.1111 0.888889C15.602 1.37981 15.602 2.17575 15.1111 2.66667L9.77778 8L15.1111 13.3333C15.602 13.8243 15.602 14.6202 15.1111 15.1111C14.6202 15.602 13.8243 15.602 13.3333 15.1111L8 9.77778L2.66667 15.1111C2.17575 15.602 1.37981 15.602 0.888889 15.1111C0.397969 14.6202 0.397969 13.8243 0.888889 13.3333L6.22222 8Z" fill="currentColor"/>
</svg>
