<svg width="222" height="40" viewBox="0 0 222 40" fill="none" xmlns="http://www.w3.org/2000/svg">
<path d="M9.88281 10.875H26.3672C27.0964 10.901 27.6953 11.1745 28.1641 11.6953C28.6589 12.2161 28.9062 12.8411 28.9062 13.5703C28.776 15.1328 27.9297 15.9792 26.3672 16.1094H11.2109C10.2214 16.1615 9.40104 16.5391 8.75 17.2422C8.09896 17.9453 7.61719 18.7526 7.30469 19.6641C7.01823 20.5495 6.875 21.4609 6.875 22.3984C6.875 23.3359 7.01823 24.2604 7.30469 25.1719C7.61719 26.0573 8.09896 26.8516 8.75 27.5547C9.40104 28.2578 10.2214 28.6354 11.2109 28.6875H23.0859C23.5547 28.6615 23.8021 28.401 23.8281 27.9062V25.6406C23.8021 25.1198 23.5547 24.8594 23.0859 24.8594H13.0859C12.3568 24.8594 11.7318 24.612 11.2109 24.1172C10.7161 23.5964 10.4688 22.9714 10.4688 22.2422C10.4688 21.513 10.7161 20.888 11.2109 20.3672C11.7318 19.8724 12.3568 19.625 13.0859 19.625H26.4453C27.1745 19.625 27.7995 19.8724 28.3203 20.3672C28.7891 20.862 29.0365 21.4609 29.0625 22.1641V22.2422V31.3828C29.0365 32.0859 28.7891 32.6719 28.3203 33.1406C27.8255 33.6354 27.2266 33.8958 26.5234 33.9219H9.88281C8.0599 33.8177 6.54948 33.1276 5.35156 31.8516C4.17969 30.5495 3.33333 29.0781 2.8125 27.4375C2.31771 25.7969 2.07031 24.1172 2.07031 22.3984C2.07031 20.6797 2.33073 19 2.85156 17.3594C3.3724 15.7188 4.21875 14.2604 5.39062 12.9844C6.5625 11.6823 8.0599 10.9792 9.88281 10.875ZM34.7266 21.1094C35.2214 19.8594 36.0547 18.7396 37.2266 17.75C38.4245 16.7344 39.9349 16.2135 41.7578 16.1875H56.4453C57.1745 16.1875 57.7865 16.4479 58.2812 16.9688C58.8021 17.4635 59.0625 18.0755 59.0625 18.8047C59.0625 19.5339 58.8021 20.1589 58.2812 20.6797C57.7865 21.1745 57.1745 21.4219 56.4453 21.4219H41.6016C41.1068 21.4219 40.6771 21.6302 40.3125 22.0469C39.9479 22.4375 39.6615 22.9062 39.4531 23.4531C39.2708 24 39.1797 24.5208 39.1797 25.0156V31.8516C39.0234 33.4141 38.1641 34.2604 36.6016 34.3906C35.8724 34.3906 35.2344 34.1562 34.6875 33.6875C34.1667 33.1927 33.9062 32.5807 33.9062 31.8516V25.0547H33.9453C33.9453 23.7005 34.2057 22.3854 34.7266 21.1094ZM65.625 15.7969C66.3281 15.8229 66.9271 16.0833 67.4219 16.5781C67.9167 17.0469 68.1771 17.6328 68.2031 18.3359V31.8516C68.0469 33.4141 67.1875 34.2604 65.625 34.3906C64.8958 34.3906 64.2578 34.1562 63.7109 33.6875C63.1901 33.1927 62.9297 32.5807 62.9297 31.8516V18.3359C62.9557 17.6068 63.2292 17.0078 63.75 16.5391C64.2708 16.0443 64.8958 15.7969 65.625 15.7969ZM62.3438 10.7188C62.3438 9.98958 62.6562 9.36458 63.2812 8.84375C63.9062 8.32292 64.6615 8.0625 65.5469 8.0625C66.4323 8.0625 67.1875 8.32292 67.8125 8.84375C68.4375 9.36458 68.75 9.98958 68.75 10.7188C68.75 11.474 68.4375 12.112 67.8125 12.6328C67.1875 13.1536 66.4323 13.4141 65.5469 13.4141C64.6615 13.4141 63.9062 13.1536 63.2812 12.6328C62.6562 12.112 62.3438 11.474 62.3438 10.7188ZM78.2422 37.3203C78.0859 38.8828 77.2266 39.7292 75.6641 39.8594C74.9349 39.8594 74.2969 39.612 73.75 39.1172C73.2292 38.6484 72.9688 38.0495 72.9688 37.3203V18.7266C72.9948 17.9974 73.2682 17.3984 73.7891 16.9297C74.3099 16.4349 74.9349 16.1875 75.6641 16.1875H92.0703C94.362 16.2656 96.0938 16.8125 97.2656 17.8281C98.4375 18.8177 99.2839 19.9505 99.8047 21.2266C100.326 22.4766 100.586 23.7526 100.586 25.0547C100.586 26.4089 100.326 27.724 99.8047 29C99.3099 30.25 98.4635 31.3828 97.2656 32.3984C96.0938 33.388 94.5964 33.8958 92.7734 33.9219H82.9297C82.2005 33.9219 81.5885 33.6615 81.0938 33.1406C80.5729 32.6458 80.3125 32.0339 80.3125 31.3047C80.3125 30.5755 80.5599 29.9635 81.0547 29.4688C81.5755 28.9479 82.2005 28.6875 82.9297 28.6875H92.9297C93.4245 28.6875 93.8542 28.4922 94.2188 28.1016C94.5833 27.6849 94.8438 27.2161 95 26.6953C95.1823 26.1484 95.2734 25.6146 95.2734 25.0938C95.2734 24.5469 95.1823 24.013 95 23.4922C94.8438 22.9453 94.5833 22.4766 94.2188 22.0859C93.8542 21.6693 93.4245 21.4479 92.9297 21.4219H79.2578C78.5807 21.4479 78.2422 21.7865 78.2422 22.4375V37.3203ZM130.156 18.4531C130.156 19.1042 129.896 19.651 129.375 20.0938C128.88 20.5104 128.268 20.7188 127.539 20.7188H111.016C110.677 20.7188 110.404 20.7839 110.195 20.9141C109.987 21.0443 109.831 21.1875 109.727 21.3438C109.622 21.474 109.57 21.5911 109.57 21.6953C109.57 21.8255 109.622 21.9688 109.727 22.125C109.831 22.2552 109.987 22.3854 110.195 22.5156C110.404 22.6198 110.677 22.6849 111.016 22.7109H123.789C125.43 22.737 126.784 23.0625 127.852 23.6875C128.919 24.2865 129.674 25.0026 130.117 25.8359C130.586 26.6432 130.82 27.4635 130.82 28.2969C130.82 29.1042 130.586 29.9245 130.117 30.7578C129.648 31.5651 128.88 32.2812 127.812 32.9062C126.771 33.5052 125.43 33.8047 123.789 33.8047C123.503 33.8307 123.294 33.8438 123.164 33.8438H108.008C107.279 33.8438 106.654 33.6354 106.133 33.2188C105.638 32.776 105.391 32.2422 105.391 31.6172C105.391 30.9661 105.651 30.4193 106.172 29.9766C106.667 29.5599 107.279 29.3516 108.008 29.3516H124.102C124.492 29.3776 124.805 29.3255 125.039 29.1953C125.299 29.0651 125.495 28.9219 125.625 28.7656C125.755 28.6094 125.82 28.4531 125.82 28.2969C125.82 28.2188 125.755 28.0885 125.625 27.9062C125.495 27.6979 125.299 27.5417 125.039 27.4375C124.805 27.3073 124.492 27.2292 124.102 27.2031H111.289C109.779 27.1771 108.529 26.8646 107.539 26.2656C106.549 25.6406 105.846 24.9245 105.43 24.1172C105.013 23.3099 104.805 22.5026 104.805 21.6953C104.805 20.888 105.013 20.0938 105.43 19.3125C105.872 18.5052 106.576 17.8151 107.539 17.2422C108.529 16.6432 109.779 16.3177 111.289 16.2656C111.549 16.2396 111.745 16.2266 111.875 16.2266H127.539C128.268 16.2266 128.88 16.4479 129.375 16.8906C129.896 17.3073 130.156 17.8281 130.156 18.4531ZM143.633 10.25C144.362 10.25 144.987 10.4974 145.508 10.9922C146.029 11.4609 146.302 12.0599 146.328 12.7891V16.1875H159.609C160.339 16.1875 160.964 16.4349 161.484 16.9297C161.979 17.4505 162.227 18.0755 162.227 18.8047C162.227 19.5339 161.966 20.1589 161.445 20.6797C160.951 21.1745 160.339 21.4219 159.609 21.4219H146.328V22.2031C146.302 23.2708 146.367 24.2604 146.523 25.1719C146.706 26.0573 147.122 26.8516 147.773 27.5547C148.424 28.2578 149.245 28.6354 150.234 28.6875H159.766C160.495 28.7135 161.094 28.987 161.562 29.5078C162.057 30.0286 162.305 30.6536 162.305 31.3828C162.279 32.0859 162.018 32.6849 161.523 33.1797C161.055 33.6484 160.469 33.8958 159.766 33.9219H148.906C147.083 33.8177 145.573 33.2057 144.375 32.0859C143.203 30.9401 142.357 29.5469 141.836 27.9062C141.341 26.2656 141.081 24.5208 141.055 22.6719V21.4219H136.562C135.833 21.4219 135.221 21.1615 134.727 20.6406C134.206 20.1458 133.945 19.5339 133.945 18.8047C133.945 18.0755 134.193 17.4635 134.688 16.9688C135.208 16.4479 135.833 16.1875 136.562 16.1875H141.055V12.7891C141.081 12.0859 141.341 11.5 141.836 11.0312C142.331 10.5365 142.93 10.276 143.633 10.25ZM174.062 33.9219C171.771 33.8438 170.039 33.3099 168.867 32.3203C167.695 31.3047 166.849 30.1719 166.328 28.9219C165.807 27.6458 165.547 26.3568 165.547 25.0547C165.547 23.7005 165.794 22.3984 166.289 21.1484C166.81 19.8724 167.656 18.7396 168.828 17.75C170.026 16.7344 171.536 16.2135 173.359 16.1875H188.203C188.932 16.1875 189.544 16.4349 190.039 16.9297C190.56 17.3984 190.82 17.9714 190.82 18.6484C190.82 19.3516 190.56 19.9505 190.039 20.4453C189.544 20.9141 188.932 21.1484 188.203 21.1484H173.594C173.021 21.1484 172.513 21.3438 172.07 21.7344C171.654 22.125 171.341 22.6328 171.133 23.2578C170.951 23.8828 170.859 24.4948 170.859 25.0938C170.859 25.7448 170.951 26.3828 171.133 27.0078C171.341 27.6328 171.654 28.1406 172.07 28.5312C172.513 28.8958 173.021 29.0911 173.594 29.1172H188.203C188.932 29.1172 189.544 29.3516 190.039 29.8203C190.56 30.2891 190.82 30.849 190.82 31.5C190.82 32.1771 190.56 32.75 190.039 33.2188C189.544 33.6875 188.932 33.9219 188.203 33.9219H174.062ZM190.352 24.9766C190.352 25.4714 190.13 25.901 189.688 26.2656C189.297 26.6042 188.802 26.7734 188.203 26.7734H175.43C174.831 26.7734 174.323 26.6042 173.906 26.2656C173.49 25.901 173.281 25.4714 173.281 24.9766C173.281 24.5078 173.49 24.0911 173.906 23.7266C174.323 23.388 174.831 23.2188 175.43 23.2188H188.203C188.802 23.2188 189.31 23.401 189.727 23.7656C190.143 24.1042 190.352 24.5078 190.352 24.9766ZM196.133 21.1094C196.628 19.8594 197.461 18.7396 198.633 17.75C199.831 16.7344 201.341 16.2135 203.164 16.1875H217.852C218.581 16.1875 219.193 16.4479 219.688 16.9688C220.208 17.4635 220.469 18.0755 220.469 18.8047C220.469 19.5339 220.208 20.1589 219.688 20.6797C219.193 21.1745 218.581 21.4219 217.852 21.4219H203.008C202.513 21.4219 202.083 21.6302 201.719 22.0469C201.354 22.4375 201.068 22.9062 200.859 23.4531C200.677 24 200.586 24.5208 200.586 25.0156V31.8516C200.43 33.4141 199.57 34.2604 198.008 34.3906C197.279 34.3906 196.641 34.1562 196.094 33.6875C195.573 33.1927 195.312 32.5807 195.312 31.8516V25.0547H195.352C195.352 23.7005 195.612 22.3854 196.133 21.1094Z" fill="#EA592A"/>
</svg>
