<svg width="27" height="30" viewBox="0 0 27 30" fill="none" xmlns="http://www.w3.org/2000/svg">
<path d="M10.7692 11.9992V10.8561C10.3451 10.8 9.91782 10.771 9.48999 10.7692C4.25769 10.7692 0 14.7538 0 19.6515C0 22.6554 1.60461 25.3154 4.05154 26.9231C2.41308 25.2831 1.50154 23.1215 1.50308 20.8761C1.50308 16.0485 5.63923 12.1115 10.7692 11.9992Z" fill="#00F2EA"/>
<path d="M11.0208 24.6154C13.2331 24.6154 15.0369 22.8669 15.1192 20.6869L15.1269 1.23154H18.7038C18.6273 0.825479 18.5884 0.413214 18.5877 0L13.7031 0L13.6946 19.4561C13.6131 21.6346 11.8077 23.3831 9.59614 23.3831C8.93265 23.3831 8.27907 23.2221 7.69153 22.9138C8.07226 23.4406 8.57257 23.8695 9.15133 24.1653C9.73009 24.4611 10.3708 24.6154 11.0208 24.6154ZM25.3838 7.83538V6.75384C24.0707 6.75531 22.7854 6.37559 21.6838 5.66077C22.6506 6.76575 23.948 7.52855 25.3838 7.83538Z" fill="#00F2EA"/>
<path d="M21.5384 5.93691C20.4643 4.72346 19.8711 3.15901 19.8707 1.53845H18.5653C18.7362 2.4351 19.0879 3.28754 19.599 4.04377C20.1102 4.79999 20.7701 5.44414 21.5384 5.93691ZM9.48073 15.4346C7.2192 15.4377 5.38689 17.2508 5.38458 19.4884C5.38694 20.2302 5.59291 20.9572 5.98004 21.5899C6.36717 22.2227 6.92059 22.7371 7.57997 23.0769C7.07682 22.3914 6.80521 21.5634 6.80458 20.7131C6.80689 18.4746 8.6392 16.6608 10.9007 16.6584C11.3238 16.6584 11.7277 16.7277 12.11 16.8461V11.9231C11.7093 11.8667 11.3053 11.8374 10.9007 11.8354C10.83 11.8354 10.76 11.84 10.69 11.8408V15.6223C10.2987 15.4991 9.89097 15.4358 9.48073 15.4346Z" fill="#FF004F"/>
<path d="M24.7331 8.46155V12.2185C22.3032 12.2221 19.9329 11.4661 17.9539 10.0562V19.8769C17.9539 24.7823 13.9308 28.7731 8.98619 28.7731C7.07465 28.7731 5.30234 28.1746 3.84619 27.16C4.68682 28.0574 5.70287 28.7726 6.83131 29.2611C7.95975 29.7497 9.17653 30.0011 10.4062 30C15.3516 30 19.3746 26.0092 19.3746 21.1046V11.2831C21.3538 12.6927 23.724 13.4485 26.1539 13.4446V8.61155C25.6763 8.6114 25.2001 8.56113 24.7331 8.46155Z" fill="#FF004F"/>
<path d="M18.4454 19.5538V9.71691C20.482 11.1326 22.9043 11.8888 25.3846 11.8831V8.12153C23.9261 7.81966 22.6022 7.05962 21.6061 5.9523C20.0123 4.94691 18.9123 3.3523 18.5631 1.53845H14.9115L14.9038 20.9346C14.8192 23.1069 12.9769 24.85 10.7192 24.85C9.36999 24.8484 8.10537 24.2177 7.31922 23.1546C5.93922 22.4523 5.07383 21.0654 5.07307 19.5531C5.07537 17.3069 6.94999 15.4877 9.26537 15.4846C9.69614 15.4846 10.11 15.5538 10.5023 15.6731V11.8784C5.53999 11.9915 1.53845 15.94 1.53845 20.7815C1.53845 23.1238 2.47614 25.2554 4.00384 26.8469C5.55514 27.9025 7.38897 28.4653 9.26537 28.4615C14.3269 28.4615 18.4454 24.4654 18.4454 19.5538Z" fill="white"/>
</svg>
