<svg width="25" height="15" viewBox="0 0 25 15" fill="none" xmlns="http://www.w3.org/2000/svg">
<path d="M23.9784 1.18512C23.7084 2.03412 23.3444 2.77313 22.8884 3.44413L22.9074 3.41412C22.4594 4.16079 21.9244 5.02346 21.3024 6.00212C20.7691 6.77479 20.4867 7.17479 20.4554 7.20212C20.3174 7.37512 20.2214 7.58712 20.1884 7.82012L20.1874 7.82712C20.2144 8.03912 20.3124 8.22413 20.4554 8.36213L20.8554 8.80812C22.9954 11.0075 24.1991 12.5235 24.4664 13.3561C24.5014 13.4481 24.5214 13.5541 24.5214 13.6651C24.5214 13.8591 24.4594 14.0381 24.3544 14.1851L24.3564 14.1821C24.1804 14.3631 23.9344 14.4751 23.6624 14.4751C23.6324 14.4751 23.6014 14.4741 23.5724 14.4711H23.5764H20.9454C20.9444 14.4711 20.9424 14.4711 20.9404 14.4711C20.6034 14.4711 20.2934 14.3531 20.0504 14.1571L20.0534 14.1591C19.6994 13.8681 19.3844 13.5531 19.1024 13.2111L19.0934 13.1991C18.6327 12.6785 18.2241 12.2401 17.8674 11.8841C16.6794 10.7548 15.8027 10.1901 15.2374 10.1901C15.2164 10.1881 15.1924 10.1871 15.1674 10.1871C15.0024 10.1871 14.8484 10.2381 14.7214 10.3251L14.7244 10.3231C14.6204 10.4531 14.5574 10.6211 14.5574 10.8021C14.5574 10.8381 14.5594 10.8721 14.5644 10.9071V10.9031C14.5374 11.2171 14.5214 11.5821 14.5214 11.9511C14.5214 12.0701 14.5234 12.1881 14.5264 12.3061V12.2891V13.4481C14.5364 13.4951 14.5424 13.5491 14.5424 13.6041C14.5424 13.8461 14.4324 14.0621 14.2604 14.2051L14.2594 14.2061C13.8724 14.3831 13.4204 14.4871 12.9434 14.4871C12.8414 14.4871 12.7414 14.4821 12.6424 14.4731L12.6554 14.4741C11.0814 14.4441 9.62139 13.9831 8.38039 13.2061L8.41539 13.2261C6.90439 12.3081 5.65239 11.1131 4.69839 9.70113L4.67139 9.65913C3.76539 8.45713 2.92039 7.09912 2.20039 5.66712L2.13039 5.51313C1.70939 4.71113 1.27339 3.72512 0.897391 2.71112L0.837391 2.52612C0.684391 2.07012 0.573391 1.54013 0.527391 0.991125L0.525391 0.966125C0.525391 0.460792 0.822724 0.208125 1.41739 0.208125H4.04739C4.07139 0.206125 4.09939 0.205125 4.12839 0.205125C4.37639 0.205125 4.60539 0.290125 4.78639 0.433125L4.78439 0.431125C4.98439 0.650125 5.13239 0.919125 5.20539 1.21912L5.20839 1.23112C5.69239 2.59812 6.20539 3.74612 6.79539 4.84612L6.72839 4.70912C7.21039 5.67912 7.74339 6.51412 8.35139 7.28512L8.32839 7.25412C8.86172 7.90879 9.27772 8.23612 9.57639 8.23612C9.58539 8.23712 9.59639 8.23713 9.60839 8.23713C9.75639 8.23713 9.88539 8.15712 9.95539 8.03712L9.95639 8.03512C10.0304 7.84512 10.0734 7.62412 10.0734 7.39412C10.0734 7.34512 10.0714 7.29613 10.0674 7.24813V7.25412V3.37512C10.0464 2.91812 9.93439 2.49112 9.74739 2.10812L9.75539 2.12712C9.63139 1.86312 9.48239 1.63513 9.30539 1.43213L9.30839 1.43612C9.14439 1.27212 9.03239 1.05712 8.99739 0.817125L8.99639 0.811125C8.99639 0.641125 9.07439 0.488125 9.19639 0.388125L9.19739 0.387125C9.31839 0.276125 9.48039 0.209125 9.65739 0.209125H9.66539H13.8114C13.8334 0.206125 13.8584 0.205125 13.8844 0.205125C14.0794 0.205125 14.2544 0.293125 14.3704 0.431125L14.3714 0.432125C14.4744 0.620125 14.5354 0.845125 14.5354 1.08313C14.5354 1.12113 14.5334 1.15813 14.5304 1.19513V1.19012V6.36312C14.5284 6.38712 14.5274 6.41512 14.5274 6.44312C14.5274 6.62712 14.5784 6.80012 14.6664 6.94712L14.6644 6.94312C14.7374 7.05112 14.8594 7.12113 14.9974 7.12113C15.1734 7.10913 15.3344 7.05112 15.4694 6.95912L15.4664 6.96113C15.7384 6.77413 15.9724 6.56112 16.1754 6.32012L16.1794 6.31512C16.7864 5.62912 17.3464 4.87112 17.8344 4.06512L17.8734 3.99512C18.2174 3.42512 18.5894 2.72312 18.9264 2.00212L18.9884 1.85512L19.4344 0.963125C19.5894 0.517125 20.0054 0.203125 20.4944 0.203125C20.5134 0.203125 20.5324 0.203125 20.5514 0.204125H20.5484H23.1794C23.8901 0.204125 24.1567 0.531125 23.9794 1.18512H23.9784Z" fill="white"/>
</svg>
