<svg width="36" height="25" viewBox="0 0 36 25" fill="none" xmlns="http://www.w3.org/2000/svg">
    <g clip-path="url(#clip0_3769_3503)">
        <path d="M35.2046 3.89931C34.9981 3.14563 34.5953 2.45853 34.0364 1.90643C33.4774 1.35432 32.7817 0.956474 32.0186 0.7525C29.225 0 17.9816 0 17.9816 0C17.9816 0 6.73759 0.0227777 3.94396 0.775278C3.18086 0.979264 2.48519 1.37713 1.92621 1.92926C1.36723 2.4814 0.964455 3.16852 0.757989 3.92222C-0.087019 8.82472 -0.414813 16.295 0.781192 21.0014C0.98768 21.7551 1.39047 22.4422 1.94944 22.9943C2.50842 23.5464 3.20408 23.9442 3.96716 24.1482C6.76079 24.9007 18.0045 24.9007 18.0045 24.9007C18.0045 24.9007 29.2481 24.9007 32.0416 24.1482C32.8047 23.9442 33.5004 23.5464 34.0594 22.9943C34.6184 22.4422 35.0212 21.7551 35.2277 21.0014C36.1189 16.0919 36.3936 8.62625 35.2046 3.89931Z" fill="#FF0000"/>
        <path d="M14.4023 17.7862L23.7296 12.4503L14.4023 7.1145V17.7862Z" fill="white"/>
    </g>
    <defs>
        <clipPath id="clip0_3769_3503">
            <rect width="36" height="25" fill="white"/>
        </clipPath>
    </defs>
</svg>
